# xmcd
#
# Track frame offsets:
#	150
#	14013
#	27614
#	42323
#	59782
#	76665
#	90982
#	105899
#	118051
#	133472
#	147689
#
# Disc length: 2193 seconds
#
# Revision: 0
# Processed by: cddbd v1.5.2PL0 Copyright (c) Steve Scherf et al.
# Submitted via: EasyCDDAExtractor 9.1.0.1
#
DISCID=9d088f0b
DTITLE=Various Artist - Lamon Radio Hits #9
DYEAR=2006
DGENRE=Gospel
TTITLE0=Young Harmony - Track 1God's Still God
TTITLE1=Wendy Ward - Hey It's A Good Day
TTITLE2=The Bradleys - Holy Hands
TTITLE3=Ed Bruce - Standing in The Fire
TTITLE4=Sounds Of Victory - I Should Have Been Crucified
TTITLE5=One Reason - This Is The Walk
TTITLE6=Dave Moody - Amazing Grace
TTITLE7=Lynn McCarn - Sometimes You Gotta Shout
TTITLE8=William Boyd Chisum - That Wouldn't Be Love
TTITLE9=Gary Meggs - Don't You Need A Friend
TTITLE10=Leonardo - Predica Sin Hablar
EXTD=
EXTT0=
EXTT1=
EXTT2=
EXTT3=
EXTT4=
EXTT5=
EXTT6=
EXTT7=
EXTT8=
EXTT9=
EXTT10=
PLAYORDER=
